<svg aria-hidden="true" style="position: absolute; width: 0; height: 0; overflow: hidden;" version="1.1" xmlns="http://www.w3.org/2000/svg" xmlns:xlink="http://www.w3.org/1999/xlink">
<defs>
    <symbol id="icon-facebook-1" viewBox="0 0 32 32">
        <path d="M16 0c-8.837 0-16 7.163-16 16s7.163 16 16 16c8.837 0 16-7.163 16-16s-7.163-16-16-16zM17.668 16.703v8.705h-3.602v-8.705h-1.799v-3h1.799v-1.801c0-2.447 1.016-3.902 3.903-3.902h2.403v3h-1.502c-1.124 0-1.198 0.419-1.198 1.202l-0.004 1.501h2.721l-0.318 3h-2.403z"></path>
    </symbol>
    <symbol id="icon-instagram-2" viewBox="0 0 32 32">
        <path d="M16 0c-8.837 0-16 7.163-16 16s7.163 16 16 16c8.837 0 16-7.163 16-16s-7.163-16-16-16zM12.482 7.518c0.91-0.041 1.201-0.052 3.519-0.052h-0.003c2.318 0 2.608 0.010 3.518 0.052 0.909 0.042 1.529 0.185 2.073 0.396 0.562 0.218 1.036 0.509 1.511 0.984s0.766 0.95 0.985 1.512c0.21 0.543 0.354 1.163 0.396 2.071 0.041 0.91 0.052 1.201 0.052 3.519s-0.011 2.608-0.052 3.518c-0.043 0.908-0.187 1.528-0.396 2.071-0.219 0.561-0.51 1.037-0.985 1.511s-0.95 0.767-1.511 0.985c-0.543 0.211-1.164 0.355-2.072 0.396-0.91 0.041-1.2 0.052-3.518 0.052s-2.608-0.010-3.518-0.052c-0.908-0.042-1.529-0.185-2.071-0.396-0.561-0.218-1.037-0.51-1.511-0.985s-0.766-0.95-0.984-1.512c-0.211-0.543-0.355-1.163-0.396-2.071-0.041-0.91-0.052-1.2-0.052-3.518s0.011-2.609 0.051-3.519c0.041-0.908 0.185-1.528 0.396-2.071 0.219-0.561 0.51-1.037 0.985-1.511s0.95-0.766 1.512-0.984c0.543-0.211 1.163-0.355 2.071-0.396z"></path>
        <path d="M15.235 9.005c0.149-0 0.309-0 0.481-0l0.284 0c2.278 0 2.549 0.008 3.448 0.049 0.832 0.038 1.284 0.177 1.584 0.294 0.398 0.155 0.682 0.34 0.981 0.638s0.484 0.583 0.639 0.981c0.117 0.3 0.256 0.752 0.294 1.584 0.041 0.9 0.050 1.17 0.050 3.447s-0.009 2.548-0.050 3.447c-0.038 0.832-0.177 1.284-0.294 1.584-0.155 0.398-0.34 0.682-0.639 0.98s-0.582 0.484-0.981 0.638c-0.3 0.117-0.752 0.256-1.584 0.294-0.9 0.041-1.17 0.050-3.448 0.050s-2.549-0.009-3.448-0.050c-0.832-0.038-1.284-0.177-1.585-0.294-0.398-0.155-0.683-0.34-0.981-0.638s-0.484-0.582-0.639-0.981c-0.117-0.3-0.256-0.752-0.294-1.584-0.041-0.9-0.049-1.17-0.049-3.449s0.008-2.548 0.049-3.447c0.038-0.832 0.177-1.284 0.294-1.584 0.155-0.398 0.34-0.683 0.639-0.981s0.583-0.484 0.981-0.639c0.301-0.117 0.753-0.256 1.585-0.294 0.787-0.036 1.092-0.046 2.683-0.048v0.002zM20.556 10.421c-0.565 0-1.024 0.458-1.024 1.024s0.459 1.024 1.024 1.024c0.565 0 1.024-0.459 1.024-1.024s-0.459-1.024-1.024-1.024v0zM11.618 16c0-2.42 1.962-4.382 4.382-4.382h-0c2.42 0 4.382 1.962 4.382 4.382s-1.961 4.381-4.382 4.381c-2.42 0-4.382-1.961-4.382-4.381z"></path>
        <path d="M16.001 13.156c1.571 0 2.845 1.273 2.845 2.844s-1.274 2.845-2.845 2.845c-1.571 0-2.845-1.274-2.845-2.845s1.273-2.844 2.845-2.844v0z"></path>
    </symbol>
<symbol id="icon-whatsapp-4" viewBox="0 0 32 32">
        <path d="M0 16c0 8.837 7.163 16 16 16s16-7.163 16-16c0-8.837-7.163-16-16-16s-16 7.163-16 16zM26.041 15.388c-0.002 5.245-4.268 9.512-9.514 9.514h-0.004c-1.592-0.001-3.157-0.4-4.547-1.158l-5.044 1.323 1.35-4.93c-0.833-1.443-1.271-3.080-1.27-4.756 0.002-5.246 4.27-9.513 9.514-9.513 2.545 0.001 4.934 0.992 6.73 2.79s2.785 4.189 2.784 6.731z"></path>
        <path d="M9.218 22.806l2.993-0.785 0.289 0.171c1.214 0.721 2.606 1.102 4.025 1.102h0.003c4.358 0 7.906-3.547 7.908-7.908 0.001-2.113-0.821-4.1-2.314-5.594s-3.479-2.318-5.591-2.319c-4.362 0-7.909 3.547-7.911 7.907-0.001 1.494 0.417 2.949 1.209 4.208l0.188 0.299-0.799 2.918zM20.995 17.436c0.166 0.080 0.278 0.134 0.326 0.214 0.059 0.099 0.059 0.575-0.139 1.13s-1.148 1.062-1.605 1.13c-0.41 0.061-0.928 0.087-1.497-0.094-0.345-0.11-0.788-0.256-1.355-0.501-2.229-0.962-3.735-3.122-4.019-3.531-0.020-0.029-0.034-0.049-0.042-0.059l-0.002-0.003c-0.126-0.168-0.969-1.293-0.969-2.457 0-1.095 0.538-1.669 0.785-1.933 0.017-0.018 0.033-0.035 0.047-0.050 0.218-0.238 0.475-0.297 0.634-0.297s0.317 0.002 0.456 0.008c0.017 0.001 0.035 0.001 0.053 0.001 0.139-0.001 0.311-0.002 0.482 0.407 0.066 0.157 0.161 0.391 0.263 0.637 0.205 0.498 0.431 1.048 0.47 1.128 0.059 0.119 0.099 0.258 0.020 0.417-0.012 0.024-0.023 0.046-0.033 0.068-0.059 0.121-0.103 0.211-0.204 0.329-0.040 0.046-0.081 0.096-0.122 0.146-0.082 0.1-0.164 0.199-0.235 0.27-0.119 0.119-0.243 0.247-0.104 0.485s0.616 1.016 1.322 1.647c0.76 0.678 1.42 0.964 1.755 1.109 0.065 0.028 0.118 0.051 0.157 0.071 0.238 0.119 0.376 0.099 0.515-0.059s0.594-0.694 0.753-0.932c0.158-0.238 0.317-0.198 0.535-0.119s1.387 0.654 1.624 0.773c0.046 0.023 0.090 0.044 0.13 0.064z"></path>
    </symbol>
<symbol id="icon-youtube-3" viewBox="0 0 32 32">
        <path d="M16 0c-8.837 0-16 7.163-16 16s7.163 16 16 16c8.837 0 16-7.163 16-16s-7.163-16-16-16zM22.668 10.5c0.734 0.201 1.313 0.795 1.509 1.549 0.357 1.367 0.357 4.218 0.357 4.218s0 2.851-0.357 4.218c-0.196 0.754-0.775 1.348-1.509 1.549-1.331 0.366-6.668 0.366-6.668 0.366s-5.337 0-6.668-0.366c-0.734-0.202-1.313-0.795-1.509-1.549-0.357-1.367-0.357-4.218-0.357-4.218s0-2.851 0.357-4.218c0.196-0.754 0.775-1.348 1.509-1.549 1.331-0.366 6.668-0.366 6.668-0.366s5.337 0 6.668 0.366z"></path>
        <path d="M14.4 19.2v-5.333l4.267 2.667-4.267 2.667z"></path>
    </symbol>


    <!--  -->


    <symbol id="icon-facebook-w" viewBox="0 0 32 32">
<path  d="M16 0c-8.837 0-16 7.163-16 16s7.163 16 16 16c8.837 0 16-7.163 16-16s-7.163-16-16-16zM17.668 16.703v8.705h-3.602v-8.705h-1.799v-3h1.799v-1.801c0-2.447 1.016-3.902 3.903-3.902h2.403v3h-1.502c-1.124 0-1.198 0.419-1.198 1.202l-0.004 1.501h2.721l-0.318 3h-2.403z"></path>
</symbol>
<symbol id="icon-instagram-w" viewBox="0 0 32 32">
<path fill="#fff" style="fill: var(--color1, #fff)" d="M16 0c-8.837 0-16 7.163-16 16s7.163 16 16 16c8.837 0 16-7.163 16-16s-7.163-16-16-16zM12.482 7.518c0.91-0.041 1.201-0.052 3.519-0.052h-0.003c2.318 0 2.608 0.010 3.518 0.052 0.909 0.042 1.529 0.185 2.073 0.396 0.562 0.218 1.036 0.509 1.511 0.984s0.766 0.95 0.985 1.512c0.21 0.543 0.354 1.163 0.396 2.071 0.041 0.91 0.052 1.201 0.052 3.519s-0.011 2.608-0.052 3.518c-0.043 0.908-0.187 1.528-0.396 2.071-0.219 0.561-0.51 1.037-0.985 1.511s-0.95 0.767-1.511 0.985c-0.543 0.211-1.164 0.355-2.072 0.396-0.91 0.041-1.2 0.052-3.518 0.052s-2.608-0.010-3.518-0.052c-0.908-0.042-1.529-0.185-2.071-0.396-0.561-0.218-1.037-0.51-1.511-0.985s-0.766-0.95-0.984-1.512c-0.211-0.543-0.355-1.163-0.396-2.071-0.041-0.91-0.052-1.2-0.052-3.518s0.011-2.609 0.051-3.519c0.041-0.908 0.185-1.528 0.396-2.071 0.219-0.561 0.51-1.037 0.985-1.511s0.95-0.766 1.512-0.984c0.543-0.211 1.163-0.355 2.071-0.396z"></path>
<path fill="#fff" style="fill: var(--color1, #fff)" d="M15.235 9.004c0.149-0 0.309-0 0.481-0l0.284 0c2.278 0 2.549 0.008 3.448 0.049 0.832 0.038 1.284 0.177 1.584 0.294 0.398 0.155 0.682 0.34 0.981 0.638s0.484 0.583 0.639 0.981c0.117 0.3 0.256 0.752 0.294 1.584 0.041 0.9 0.050 1.17 0.050 3.447s-0.009 2.548-0.050 3.447c-0.038 0.832-0.177 1.284-0.294 1.584-0.155 0.398-0.34 0.682-0.639 0.98s-0.582 0.484-0.981 0.638c-0.3 0.117-0.752 0.256-1.584 0.294-0.9 0.041-1.17 0.050-3.448 0.050s-2.549-0.009-3.448-0.050c-0.832-0.038-1.284-0.177-1.585-0.294-0.398-0.155-0.683-0.34-0.981-0.638s-0.484-0.582-0.639-0.981c-0.117-0.3-0.256-0.752-0.294-1.584-0.041-0.9-0.049-1.17-0.049-3.449s0.008-2.548 0.049-3.447c0.038-0.832 0.177-1.284 0.294-1.584 0.155-0.398 0.34-0.683 0.639-0.981s0.583-0.484 0.981-0.639c0.301-0.117 0.753-0.256 1.585-0.294 0.787-0.036 1.092-0.046 2.683-0.048v0.002zM20.556 10.421c-0.565 0-1.024 0.458-1.024 1.024s0.459 1.024 1.024 1.024c0.565 0 1.024-0.459 1.024-1.024s-0.459-1.024-1.024-1.024v0zM11.618 16c0-2.42 1.962-4.382 4.382-4.382h-0c2.42 0 4.382 1.962 4.382 4.382s-1.961 4.381-4.382 4.381c-2.42 0-4.382-1.961-4.382-4.381z"></path>
<path fill="#fff" style="fill: var(--color1, #fff)" d="M16.001 13.155c1.571 0 2.845 1.273 2.845 2.844s-1.274 2.844-2.845 2.844c-1.571 0-2.845-1.274-2.845-2.845s1.273-2.844 2.845-2.844v0z"></path>
</symbol>
<symbol id="icon-whatsApp-w" viewBox="0 0 32 32">
<path fill="#fff" style="fill: var(--color1, #fff)" d="M0 16c0 8.837 7.163 16 16 16s16-7.163 16-16c0-8.837-7.163-16-16-16s-16 7.163-16 16zM26.041 15.388c-0.002 5.245-4.268 9.512-9.514 9.514h-0.004c-1.592-0.001-3.157-0.4-4.547-1.158l-5.044 1.323 1.35-4.93c-0.833-1.443-1.271-3.080-1.27-4.756 0.002-5.246 4.27-9.514 9.514-9.514 2.545 0.001 4.934 0.992 6.73 2.79s2.785 4.189 2.784 6.731z"></path>
<path fill="#fff" style="fill: var(--color1, #fff)" d="M9.218 22.806l2.993-0.785 0.289 0.171c1.214 0.72 2.606 1.102 4.025 1.102h0.003c4.358 0 7.906-3.547 7.908-7.908 0.001-2.113-0.821-4.1-2.314-5.594s-3.479-2.318-5.591-2.319c-4.362 0-7.909 3.547-7.911 7.907-0.001 1.494 0.417 2.949 1.209 4.208l0.188 0.299-0.799 2.918zM20.995 17.436c0.166 0.080 0.278 0.134 0.326 0.214 0.059 0.099 0.059 0.575-0.139 1.13s-1.148 1.062-1.605 1.13c-0.41 0.061-0.928 0.087-1.497-0.094-0.345-0.11-0.788-0.256-1.355-0.501-2.229-0.962-3.735-3.122-4.019-3.531-0.020-0.029-0.034-0.049-0.042-0.059l-0.002-0.003c-0.126-0.168-0.969-1.293-0.969-2.457 0-1.095 0.538-1.669 0.785-1.933 0.017-0.018 0.033-0.035 0.047-0.050 0.218-0.238 0.475-0.297 0.634-0.297s0.317 0.002 0.456 0.008c0.017 0.001 0.035 0.001 0.053 0.001 0.139-0.001 0.311-0.002 0.482 0.407 0.066 0.158 0.161 0.391 0.263 0.637 0.205 0.498 0.431 1.048 0.47 1.128 0.059 0.119 0.099 0.258 0.020 0.416-0.012 0.024-0.023 0.046-0.033 0.068-0.059 0.121-0.103 0.211-0.204 0.329-0.040 0.046-0.081 0.096-0.122 0.146-0.082 0.1-0.164 0.199-0.235 0.27-0.119 0.119-0.243 0.247-0.104 0.485s0.616 1.016 1.322 1.647c0.76 0.678 1.42 0.964 1.755 1.109 0.065 0.028 0.118 0.051 0.157 0.071 0.238 0.119 0.376 0.099 0.515-0.059s0.594-0.694 0.753-0.932c0.158-0.238 0.317-0.198 0.535-0.119s1.387 0.654 1.624 0.773c0.046 0.023 0.090 0.044 0.13 0.064z"></path>
</symbol>
<symbol id="icon-youtube-w" viewBox="0 0 32 32">
<path fill="#fff" style="fill: var(--color1, #fff)" d="M16 0c-8.837 0-16 7.163-16 16s7.163 16 16 16c8.837 0 16-7.163 16-16s-7.163-16-16-16zM22.668 10.5c0.734 0.202 1.313 0.795 1.509 1.549 0.357 1.367 0.357 4.218 0.357 4.218s0 2.851-0.357 4.218c-0.196 0.754-0.775 1.348-1.509 1.549-1.331 0.366-6.668 0.366-6.668 0.366s-5.337 0-6.668-0.366c-0.734-0.202-1.313-0.795-1.509-1.549-0.357-1.367-0.357-4.218-0.357-4.218s0-2.851 0.357-4.218c0.196-0.754 0.775-1.348 1.509-1.549 1.331-0.366 6.668-0.366 6.668-0.366s5.337 0 6.668 0.366z"></path>
<path fill="#fff" style="fill: var(--color1, #fff)" d="M14.4 19.2v-5.333l4.267 2.667-4.267 2.667z"></path>
</symbol>

<!--  -->

<symbol id="icon-si_phone-line" viewBox="0 0 32 32">
<path stroke-linejoin="round" stroke-linecap="butt" stroke-miterlimit="10" stroke-width="2" d="M9.573 13.693l8.672 8.613c0.929-1.076 6.813-7.384 9.755 1.232 0 0-0.309 4.461-6.659 4.461-4.489 0-9.135-5.384-12.387-8.461-2.787-2.616-4.955-6-4.955-9.077 0-6.307 4.336-6.461 4.336-6.461 9.909 3.384 1.239 9.693 1.239 9.693h-0.001z"></path>
</symbol>
</defs>
</svg>
